<svg width="166" height="111" viewBox="0 0 166 111" fill="none" xmlns="http://www.w3.org/2000/svg">
<path d="M78.5103 71.4639C78.5103 93.1079 60.9352 110.654 39.2552 110.654C17.5751 110.654 0 93.1079 0 71.4639C0 49.82 17.5751 32.274 39.2552 32.274C60.9352 32.274 78.5103 49.82 78.5103 71.4639Z" fill="#D9D9D9"/>
<path d="M165.103 55.3269C165.103 85.8831 140.291 110.654 109.684 110.654C79.0764 110.654 54.2645 85.8831 54.2645 55.3269C54.2645 24.7707 79.0764 0 109.684 0C140.291 0 165.103 24.7707 165.103 55.3269Z" fill="#D9D9D9"/>
<path d="M41.5643 32.274H116.611V110.654H41.5643V32.274Z" fill="#D9D9D9"/>
</svg>
