<svg width="141" height="136" viewBox="0 0 141 136" fill="none" xmlns="http://www.w3.org/2000/svg">
<g filter="url(#filter0_f_67_2)">
<path d="M128.592 67.9962C128.592 101.462 101.463 128.592 67.9962 128.592C34.5298 128.592 7.40002 101.462 7.40002 67.9962C7.40002 34.5298 34.5298 7.4 67.9962 7.4C101.463 7.4 128.592 34.5298 128.592 67.9962Z" fill="#FF9D00"/>
<path d="M121.567 68.8744C121.567 98.9456 97.1892 123.323 67.118 123.323C37.0468 123.323 12.6693 98.9456 12.6693 68.8744C12.6693 38.8032 37.0468 14.4256 67.118 14.4256C97.1892 14.4256 121.567 38.8032 121.567 68.8744Z" fill="#FFD900"/>
</g>
<g filter="url(#filter1_f_67_2)">
<path d="M87.5259 104.379C87.5259 117.093 77.2003 127.4 64.463 127.4C51.7257 127.4 41.4 117.093 41.4 104.379C41.4 91.6651 51.7257 81.3583 64.463 81.3583C77.2003 81.3583 87.5259 91.6651 87.5259 104.379Z" fill="#D9D9D9"/>
<path d="M138.4 94.9C138.4 112.849 123.823 127.4 105.841 127.4C87.8585 127.4 73.2811 112.849 73.2811 94.9C73.2811 76.9507 87.8585 62.4 105.841 62.4C123.823 62.4 138.4 76.9507 138.4 94.9Z" fill="#D9D9D9"/>
<path d="M65.8196 81.3583H109.911V127.4H65.8196V81.3583Z" fill="#D9D9D9"/>
</g>
<defs>
<filter id="filter0_f_67_2" x="2.43187e-05" y="-4.76837e-07" width="135.992" height="135.992" filterUnits="userSpaceOnUse" color-interpolation-filters="sRGB">
<feFlood flood-opacity="0" result="BackgroundImageFix"/>
<feBlend mode="normal" in="SourceGraphic" in2="BackgroundImageFix" result="shape"/>
<feGaussianBlur stdDeviation="3.7" result="effect1_foregroundBlur_67_2"/>
</filter>
<filter id="filter1_f_67_2" x="39.1" y="60.1" width="101.6" height="69.6" filterUnits="userSpaceOnUse" color-interpolation-filters="sRGB">
<feFlood flood-opacity="0" result="BackgroundImageFix"/>
<feBlend mode="normal" in="SourceGraphic" in2="BackgroundImageFix" result="shape"/>
<feGaussianBlur stdDeviation="1.15" result="effect1_foregroundBlur_67_2"/>
</filter>
</defs>
</svg>
