<svg width="201" height="102" viewBox="0 0 201 102" fill="none" xmlns="http://www.w3.org/2000/svg">
<path d="M33.6866 73.0088C31.0968 70.1325 31.329 65.7013 34.2053 63.1115L101.471 2.54517C104.347 -0.044669 108.779 0.187559 111.368 3.06386C113.958 5.94016 113.726 10.3713 110.85 12.9612L43.584 73.5275C40.7077 76.1173 36.2765 75.8851 33.6866 73.0088Z" fill="#D9D9D9"/>
<path d="M112.454 38.4865C109.864 35.6102 110.096 31.179 112.973 28.5892L142.725 1.80012C145.601 -0.789716 150.032 -0.55749 152.622 2.31881C155.212 5.19511 154.98 9.62629 152.104 12.2161L122.351 39.0052C119.475 41.5951 115.044 41.3628 112.454 38.4865Z" fill="#D9D9D9"/>
<path d="M94.351 99.4965C91.7611 96.6202 91.9934 92.189 94.8697 89.5992L157.268 33.4155C160.144 30.8257 164.575 31.0579 167.165 33.9342C169.755 36.8105 169.523 41.2417 166.647 43.8315L104.248 100.015C101.372 102.605 96.9408 102.373 94.351 99.4965Z" fill="#D9D9D9"/>
<path d="M175.685 23.1098C173.095 20.2335 173.327 15.8024 176.203 13.2125L188.878 1.80013C191.754 -0.7897 196.186 -0.557471 198.776 2.31883C201.365 5.19513 201.133 9.62631 198.257 12.2161L185.582 23.6285C182.706 26.2184 178.275 25.9861 175.685 23.1098Z" fill="#D9D9D9"/>
<path d="M1.80012 98.6355C-0.789716 95.7592 -0.55749 91.328 2.31881 88.7382L14.9936 77.3258C17.8699 74.7359 22.301 74.9682 24.8909 77.8445C27.4807 80.7208 27.2485 85.152 24.3722 87.7418L11.6974 99.1542C8.82113 101.744 4.38995 101.512 1.80012 98.6355Z" fill="#D9D9D9"/>
</svg>
